<svg width="43" height="43" viewBox="0 0 43 43" fill="none" xmlns="http://www.w3.org/2000/svg">
<g clip-path="url(#clip0_1_1899)">
<path d="M11.4781 24.5269L11.0571 26.7448L13.2368 25.943L11.4781 24.5269ZM17.6225 21.2771L15.0214 19.1829L12.3033 20.1832L11.6804 23.464L14.2816 25.5583L16.9997 24.5579L17.6225 21.2771ZM16.7916 25.6518L15.1493 26.256L16.4742 27.3227L16.7916 25.6518Z" fill="#FFF3EB"/>
<path d="M20.3788 17.204L17.2488 8.69995L3.81171 13.6459L12.0542 36.041L20.8542 32.8017C20.542 32.2386 20.3784 31.6052 20.3788 30.9614V24.3316L17.8364 25.267L17.2636 28.2825C17.2483 28.3635 17.2122 28.4391 17.1588 28.502C17.1055 28.5649 17.0368 28.6129 16.9595 28.6414C16.8821 28.6698 16.7986 28.6777 16.7173 28.6644C16.6359 28.651 16.5594 28.6167 16.4952 28.565L14.1041 26.6406L10.5957 27.9317C10.5164 27.9608 10.4308 27.9685 10.3476 27.9538C10.2645 27.9391 10.1867 27.9025 10.1222 27.848C10.0578 27.7934 10.009 27.7226 9.9808 27.643C9.95262 27.5634 9.94608 27.4777 9.96184 27.3947L10.6358 23.8486L7.82318 21.5849C7.75732 21.532 7.70668 21.4625 7.67645 21.3836C7.64622 21.3047 7.63748 21.2192 7.65112 21.1358C7.66476 21.0524 7.70029 20.9741 7.75408 20.909C7.80787 20.8438 7.878 20.7941 7.9573 20.7649L11.4667 19.4739L12.0394 16.4585C12.0548 16.3775 12.0909 16.3019 12.1442 16.239C12.1975 16.1761 12.2662 16.128 12.3436 16.0996C12.421 16.0711 12.5044 16.0632 12.5858 16.0766C12.6671 16.09 12.7436 16.1242 12.8078 16.176L15.199 18.1003L18.7074 16.8093C18.7867 16.7801 18.8722 16.7725 18.9554 16.7872C19.0386 16.8019 19.1164 16.8384 19.1808 16.893C19.2453 16.9476 19.2941 17.0183 19.3222 17.0979C19.3504 17.1776 19.357 17.2632 19.3412 17.3462L18.6673 20.8924L20.3788 22.2698V17.204ZM9.34282 15.6261C9.13666 15.8432 8.97865 16.1014 8.87914 16.3837C8.77962 16.6661 8.74084 16.9662 8.76532 17.2646L8.78823 17.5452C8.79682 17.6493 8.77103 17.7534 8.7148 17.8414C8.65857 17.9295 8.57502 17.9966 8.47695 18.0326C8.37888 18.0686 8.27172 18.0714 8.17191 18.0406C8.07209 18.0098 7.98513 17.9471 7.92437 17.8622L7.76066 17.634C7.58581 17.3911 7.36171 17.1879 7.10299 17.0375C6.84427 16.887 6.55674 16.7929 6.25916 16.7611C6.17059 16.7517 6.08641 16.7178 6.01614 16.663C5.94586 16.6083 5.8923 16.535 5.86152 16.4514C5.83073 16.3679 5.82394 16.2773 5.84192 16.1901C5.8599 16.1029 5.90193 16.0224 5.96325 15.9578C6.16924 15.7406 6.32713 15.4825 6.42663 15.2001C6.52614 14.9178 6.56502 14.6177 6.54075 14.3194L6.51784 14.0392C6.50969 13.9353 6.53571 13.8317 6.59193 13.744C6.64816 13.6563 6.73151 13.5893 6.82929 13.5534C6.92707 13.5175 7.03392 13.5145 7.13356 13.5449C7.2332 13.5753 7.32017 13.6374 7.38123 13.7218L7.54493 13.9495C7.71984 14.1926 7.94407 14.396 8.20297 14.5465C8.46187 14.697 8.74961 14.7912 9.04739 14.8229C9.13592 14.8323 9.22004 14.8664 9.29025 14.9211C9.36046 14.9759 9.41395 15.0492 9.44469 15.1327C9.47542 15.2163 9.48217 15.3068 9.46417 15.394C9.44617 15.4812 9.40413 15.5616 9.34282 15.6261Z" fill="#FFF3EB"/>
<path d="M21.4455 33.6012L11.9363 37.1015C11.8175 37.1452 11.6862 37.14 11.5712 37.0872C11.5142 37.0609 11.4629 37.0237 11.4203 36.9776C11.3778 36.9315 11.3447 36.8774 11.323 36.8185L2.7512 13.5276C2.70743 13.4088 2.71261 13.2776 2.76559 13.1627C2.81857 13.0478 2.91503 12.9586 3.03374 12.9148L17.3672 7.63947C17.426 7.61781 17.4885 7.60795 17.5512 7.61045C17.6138 7.61295 17.6753 7.62777 17.7322 7.65405C17.7891 7.68033 17.8403 7.71756 17.8828 7.76362C17.9253 7.80968 17.9584 7.86367 17.98 7.92249L20.3788 14.4401V7.52731L20.2213 7.09776C19.954 6.38186 19.429 5.80913 18.7322 5.48936C18.3913 5.32968 18.0221 5.23943 17.646 5.22386C17.2699 5.20829 16.8944 5.26772 16.5415 5.39867L2.20901 10.6773C1.49705 10.9402 0.918379 11.4747 0.599876 12.1636C0.281373 12.8525 0.249025 13.6396 0.509924 14.3523L9.08174 37.6432C9.34901 38.3591 9.87401 38.9319 10.5708 39.2516C10.9118 39.4109 11.281 39.5009 11.6571 39.5165C12.0331 39.532 12.4085 39.4728 12.7615 39.3423L25.1515 34.7796H24.197C23.6825 34.7794 23.1734 34.6749 22.7005 34.4723C22.2276 34.2698 21.8006 33.9734 21.4455 33.6012Z" fill="#FFF3EB"/>
<path d="M10.8376 22.7857L11.259 20.5673L9.07836 21.3696L10.8376 22.7857ZM18.4654 21.9553L18.0439 24.1736L20.2246 23.3713L18.4654 21.9553ZM7.11438 15.9903C7.38786 16.0934 7.64606 16.2337 7.87993 16.4093C7.94475 16.1239 8.04985 15.8491 8.19206 15.5932C7.91807 15.4908 7.65999 15.35 7.42556 15.1751C7.3608 15.4602 7.25603 15.7346 7.11438 15.9903ZM12.5114 19.0892L14.1537 18.485L12.8288 17.4183L12.5114 19.0892ZM18.2458 17.9963L16.0661 18.7981L17.8249 20.2142L18.2458 17.9963ZM31.8333 23.325C32.4763 23.3254 33.1128 23.1956 33.7043 22.9434C34.2959 22.6913 34.8303 22.322 35.2754 21.8579C35.0845 21.8818 34.8912 21.8932 34.6969 21.8932C32.0652 21.8932 29.9242 19.7522 29.9242 17.1205C29.9242 15.8719 30.4144 14.6912 31.2572 13.8139C28.8966 14.0993 27.0606 16.1158 27.0606 18.5523C27.0606 21.184 29.2016 23.325 31.8333 23.325ZM27.5378 10.6191C27.6971 10.3738 27.8905 10.1524 28.112 9.96139C27.8901 9.77048 27.6972 9.54903 27.5378 9.30371C27.3785 9.549 27.1852 9.77043 26.9637 9.96139C27.1856 10.1523 27.3784 10.3738 27.5378 10.6191ZM36.1287 26.4855C35.9694 26.7308 35.7761 26.9522 35.5546 27.1432C35.7765 27.3341 35.9693 27.5556 36.1287 27.8009C36.2881 27.5556 36.4814 27.3342 36.7029 27.1432C36.481 26.9523 36.2882 26.7308 36.1287 26.4855Z" fill="#FFF3EB"/>
<path d="M24.6742 30.4842H38.9924V6.62061H24.6742V30.4842ZM37.7715 26.7157C37.8515 26.7549 37.9188 26.8158 37.966 26.8914C38.0131 26.967 38.0381 27.0543 38.0381 27.1433C38.0381 27.2324 38.0131 27.3197 37.966 27.3953C37.9188 27.4709 37.8515 27.5317 37.7715 27.571C37.5032 27.7037 37.2659 27.8916 37.0751 28.1223C36.8843 28.3529 36.7443 28.6213 36.6642 28.9097L36.5888 29.1803C36.5611 29.281 36.501 29.3698 36.4179 29.4331C36.3348 29.4964 36.2332 29.5307 36.1287 29.5307C36.0243 29.5307 35.9227 29.4964 35.8396 29.4331C35.7565 29.3698 35.6964 29.281 35.6687 29.1803L35.5937 28.9097C35.5136 28.6212 35.3735 28.3529 35.1826 28.1222C34.9918 27.8915 34.7544 27.7037 34.486 27.571C34.406 27.5317 34.3386 27.4709 34.2915 27.3953C34.2444 27.3197 34.2194 27.2324 34.2194 27.1433C34.2194 27.0543 34.2444 26.967 34.2915 26.8914C34.3386 26.8158 34.406 26.7549 34.486 26.7157C34.7543 26.5829 34.9916 26.3951 35.1824 26.1644C35.3732 25.9337 35.5132 25.6654 35.5932 25.3769L35.6687 25.1063C35.6964 25.0056 35.7565 24.9168 35.8396 24.8535C35.9227 24.7902 36.0243 24.756 36.1287 24.756C36.2332 24.756 36.3348 24.7902 36.4179 24.8535C36.501 24.9168 36.5611 25.0056 36.5888 25.1063L36.6638 25.3769C36.7439 25.6654 36.884 25.9338 37.0748 26.1645C37.2657 26.3952 37.5031 26.583 37.7715 26.7157ZM32.6814 12.8939C32.7804 12.9081 32.8724 12.953 32.9444 13.0224C33.0164 13.0917 33.0648 13.1819 33.0828 13.2803C33.1007 13.3786 33.0873 13.4801 33.0444 13.5705C33.0015 13.6608 32.9313 13.7353 32.8437 13.7835C32.2488 14.1145 31.753 14.5983 31.4076 15.185C31.0622 15.7716 30.8796 16.4398 30.8787 17.1206C30.8787 19.2259 32.5917 20.9388 34.6969 20.9388C35.2372 20.9388 35.7641 20.8242 36.2629 20.5999C36.3538 20.5589 36.4553 20.5474 36.5531 20.5671C36.6509 20.5867 36.7401 20.6365 36.8081 20.7094C36.8761 20.7824 36.9196 20.8748 36.9324 20.9737C36.9452 21.0726 36.9267 21.1731 36.8795 21.2609C36.3901 22.1735 35.6623 22.9362 34.7736 23.4678C33.885 23.9994 32.8688 24.28 31.8333 24.2797C28.6752 24.2797 26.106 21.7105 26.106 18.5524C26.106 15.3943 28.6752 12.8252 31.8333 12.8252C32.0948 12.8252 32.364 12.8471 32.6814 12.8944V12.8939ZM25.8946 9.53388C26.1631 9.40122 26.4005 9.21341 26.5915 8.98273C26.7825 8.75204 26.9226 8.48367 27.0028 8.19513L27.0777 7.92451C27.1055 7.82381 27.1656 7.735 27.2487 7.67171C27.3318 7.60842 27.4334 7.57415 27.5378 7.57415C27.6423 7.57415 27.7439 7.60842 27.827 7.67171C27.9101 7.735 27.9701 7.82381 27.9979 7.92451L28.0729 8.19513C28.153 8.48362 28.2931 8.75197 28.4839 8.98265C28.6748 9.21334 28.9122 9.40117 29.1806 9.53388C29.2606 9.57311 29.3279 9.63397 29.3751 9.70956C29.4222 9.78515 29.4471 9.87244 29.4471 9.96151C29.4471 10.0506 29.4222 10.1379 29.3751 10.2135C29.3279 10.2891 29.2606 10.3499 29.1806 10.3892C28.9123 10.5219 28.675 10.7098 28.4842 10.9404C28.2934 11.1711 28.1534 11.4395 28.0733 11.7279L27.9979 11.9985C27.9701 12.0992 27.9101 12.188 27.827 12.2513C27.7439 12.3146 27.6423 12.3489 27.5378 12.3489C27.4334 12.3489 27.3318 12.3146 27.2487 12.2513C27.1656 12.188 27.1055 12.0992 27.0777 11.9985L27.0028 11.7279C26.9227 11.4394 26.7826 11.1711 26.5917 10.9404C26.4008 10.7097 26.1635 10.5219 25.8951 10.3892C25.8151 10.3499 25.7477 10.2891 25.7006 10.2135C25.6535 10.1379 25.6285 10.0506 25.6285 9.96151C25.6285 9.87244 25.6535 9.78515 25.7006 9.70956C25.7477 9.63397 25.8146 9.57311 25.8946 9.53388Z" fill="#FFF3EB"/>
<path d="M39.4697 3.27976H24.197C22.6177 3.27976 21.3333 4.5641 21.3333 6.14339V30.9616C21.3333 32.5409 22.6177 33.8252 24.197 33.8252H39.4697C41.049 33.8252 42.3333 32.5409 42.3333 30.9616V6.14339C42.3333 4.5641 41.049 3.27976 39.4697 3.27976ZM39.947 30.9616C39.947 31.0882 39.8967 31.2096 39.8072 31.2991C39.7177 31.3886 39.5963 31.4388 39.4697 31.4388H24.197C24.0704 31.4388 23.949 31.3886 23.8595 31.2991C23.77 31.2096 23.7197 31.0882 23.7197 30.9616V6.14339C23.7197 6.01681 23.77 5.89542 23.8595 5.80591C23.949 5.71641 24.0704 5.66612 24.197 5.66612H39.4697C39.5963 5.66612 39.7177 5.71641 39.8072 5.80591C39.8967 5.89542 39.947 6.01681 39.947 6.14339V30.9616ZM0.591067 4.65812C1.08005 4.91203 1.51063 5.26525 1.85523 5.69517C2.19983 6.12508 2.45087 6.62221 2.59227 7.15474L2.73545 7.69692C2.76231 7.79884 2.82215 7.88902 2.90564 7.95336C2.98913 8.0177 3.09157 8.05259 3.19698 8.05259C3.30238 8.05259 3.40482 8.0177 3.48831 7.95336C3.5718 7.88902 3.63164 7.79884 3.6585 7.69692L3.80168 7.15521C3.94299 6.62259 4.19399 6.12535 4.5386 5.69535C4.88321 5.26535 5.31383 4.91206 5.80289 4.65812C5.88071 4.61801 5.94599 4.55724 5.99157 4.48248C6.03714 4.40772 6.06125 4.32186 6.06125 4.2343C6.06125 4.14675 6.03714 4.06088 5.99157 3.98612C5.94599 3.91136 5.88071 3.8506 5.80289 3.81049C5.3139 3.55657 4.88333 3.20335 4.53872 2.77344C4.19412 2.34353 3.94308 1.8464 3.80168 1.31387L3.6585 0.771691C3.63164 0.669763 3.5718 0.579593 3.48831 0.515251C3.40482 0.450909 3.30238 0.416016 3.19698 0.416016C3.09157 0.416016 2.98913 0.450909 2.90564 0.515251C2.82215 0.579593 2.76231 0.669763 2.73545 0.771691L2.59227 1.3134C2.45096 1.84602 2.19996 2.34326 1.85535 2.77326C1.51074 3.20326 1.08012 3.55655 0.591067 3.81049C0.51324 3.8506 0.44796 3.91136 0.402386 3.98612C0.356812 4.06088 0.332703 4.14675 0.332703 4.2343C0.332703 4.32186 0.356812 4.40772 0.402386 4.48248C0.44796 4.55724 0.51324 4.61801 0.591067 4.65812ZM42.0756 38.1741C41.5866 37.9202 41.1561 37.567 40.8115 37.1371C40.4669 36.7072 40.2158 36.21 40.0744 35.6775L39.9312 35.1353C39.9044 35.0334 39.8445 34.9432 39.761 34.8789C39.6776 34.8145 39.5751 34.7797 39.4697 34.7797C39.3643 34.7797 39.2619 34.8145 39.1784 34.8789C39.0949 34.9432 39.035 35.0334 39.0082 35.1353L38.865 35.677C38.7237 36.2097 38.4727 36.7069 38.1281 37.1369C37.7835 37.5669 37.3529 37.9202 36.8638 38.1741C36.786 38.2142 36.7207 38.275 36.6751 38.3498C36.6295 38.4245 36.6054 38.5104 36.6054 38.5979C36.6054 38.6855 36.6295 38.7714 36.6751 38.8461C36.7207 38.9209 36.786 38.9816 36.8638 39.0218C37.3528 39.2757 37.7834 39.6289 38.128 40.0588C38.4726 40.4887 38.7236 40.9858 38.865 41.5184L39.0082 42.0606C39.035 42.1625 39.0949 42.2527 39.1784 42.317C39.2619 42.3813 39.3643 42.4162 39.4697 42.4162C39.5751 42.4162 39.6776 42.3813 39.761 42.317C39.8445 42.2527 39.9044 42.1625 39.9312 42.0606L40.0744 41.5188C40.2157 40.9862 40.4667 40.489 40.8113 40.059C41.1559 39.629 41.5866 39.2757 42.0756 39.0218C42.1534 38.9816 42.2187 38.9209 42.2643 38.8461C42.3099 38.7714 42.334 38.6855 42.334 38.5979C42.334 38.5104 42.3099 38.4245 42.2643 38.3498C42.2187 38.275 42.1534 38.2142 42.0756 38.1741ZM35.852 37.2105L35.5274 37.0602C35.2533 36.9332 35.0094 36.7493 34.8119 36.5206C34.6144 36.292 34.4678 36.024 34.382 35.7343L34.2006 35.122C34.1714 35.0232 34.1111 34.9365 34.0286 34.8749C33.9461 34.8133 33.8459 34.7799 33.7429 34.7799C33.6399 34.7799 33.5397 34.8133 33.4572 34.8749C33.3747 34.9365 33.3144 35.0232 33.2852 35.122L33.1038 35.7343C33.0181 36.0242 32.8715 36.2925 32.6739 36.5213C32.4763 36.75 32.2322 36.9341 31.9579 37.0611L31.6334 37.211C31.5508 37.2493 31.481 37.3104 31.432 37.3871C31.3831 37.4638 31.3571 37.5529 31.3571 37.6439C31.3571 37.7349 31.3831 37.8239 31.432 37.9006C31.481 37.9773 31.5508 38.0384 31.6334 38.0768L31.9579 38.2271C32.2319 38.3541 32.4757 38.538 32.6731 38.7665C32.8706 38.995 33.0171 39.2629 33.1029 39.5525L33.2843 40.1648C33.3134 40.2636 33.3738 40.3503 33.4563 40.4119C33.5388 40.4735 33.639 40.5068 33.742 40.5068C33.8449 40.5068 33.9452 40.4735 34.0276 40.4119C34.1101 40.3503 34.1705 40.2636 34.1997 40.1648L34.381 39.5525C34.4668 39.2626 34.6133 38.9943 34.8109 38.7655C35.0085 38.5367 35.2526 38.3527 35.527 38.2257L35.8515 38.0758C35.934 38.0375 36.0039 37.9764 36.0528 37.8997C36.1018 37.823 36.1278 37.7339 36.1278 37.6429C36.1278 37.5519 36.1018 37.4628 36.0528 37.3861C36.0039 37.3095 35.934 37.2483 35.8515 37.21L35.852 37.2105Z" fill="#FFF3EB"/>
</g>
<defs>
<clipPath id="clip0_1_1899">
<rect width="42" height="42" fill="white" transform="translate(0.333313 0.416016)"/>
</clipPath>
</defs>
</svg>
