<svg width="43" height="43" viewBox="0 0 43 43" fill="none" xmlns="http://www.w3.org/2000/svg">
<path d="M28.6666 2.16602H14.6666C6.65163 2.16602 2.41663 6.40102 2.41663 14.416V37.166C2.41663 38.0943 2.78537 38.9845 3.44175 39.6409C4.09813 40.2973 4.98837 40.666 5.91663 40.666H28.6666C36.6816 40.666 40.9166 36.431 40.9166 28.416V14.416C40.9166 6.40102 36.6816 2.16602 28.6666 2.16602ZM25.1666 27.541H12.9166C12.4525 27.541 12.0074 27.3566 11.6792 27.0285C11.351 26.7003 11.1666 26.2551 11.1666 25.791C11.1666 25.3269 11.351 24.8818 11.6792 24.5536C12.0074 24.2254 12.4525 24.041 12.9166 24.041H25.1666C25.6308 24.041 26.0759 24.2254 26.4041 24.5536C26.7323 24.8818 26.9166 25.3269 26.9166 25.791C26.9166 26.2551 26.7323 26.7003 26.4041 27.0285C26.0759 27.3566 25.6308 27.541 25.1666 27.541ZM30.4166 18.791H12.9166C12.4525 18.791 12.0074 18.6066 11.6792 18.2785C11.351 17.9503 11.1666 17.5051 11.1666 17.041C11.1666 16.5769 11.351 16.1318 11.6792 15.8036C12.0074 15.4754 12.4525 15.291 12.9166 15.291H30.4166C30.8808 15.291 31.3259 15.4754 31.6541 15.8036C31.9823 16.1318 32.1666 16.5769 32.1666 17.041C32.1666 17.5051 31.9823 17.9503 31.6541 18.2785C31.3259 18.6066 30.8808 18.791 30.4166 18.791Z" fill="#FFF3EB"/>
</svg>
