<svg width="42" height="43" viewBox="0 0 42 43" fill="none" xmlns="http://www.w3.org/2000/svg">
<g clip-path="url(#clip0_1_1887)">
<path d="M42 28.84C42 23.6281 39.01 18.9767 34.5319 16.7141C34.3929 26.7072 26.291 34.8091 16.298 34.948C18.5606 39.4261 23.212 42.4161 28.4238 42.4161C30.8675 42.4161 33.2438 41.7653 35.3317 40.5288L41.9407 42.3568L40.1126 35.7479C41.3492 33.66 42 31.2836 42 28.84Z" fill="#FFF3EB"/>
<path d="M32.0742 16.4531C32.0742 7.61016 24.8801 0.416016 16.0371 0.416016C7.19414 0.416016 0 7.61016 0 16.4531C0 19.3351 0.767156 22.1412 2.22387 24.6047L0.0588984 32.4309L7.8855 30.2664C10.3491 31.7231 13.1551 32.4902 16.0371 32.4902C24.8801 32.4902 32.0742 25.2961 32.0742 16.4531ZM14.8066 7.79883H17.2676V20.1855H14.8066V7.79883ZM14.8066 22.6465H17.2676V25.1074H14.8066V22.6465Z" fill="#FFF3EB"/>
</g>
<defs>
<clipPath id="clip0_1_1887">
<rect width="42" height="42" fill="white" transform="translate(0 0.416016)"/>
</clipPath>
</defs>
</svg>
