<svg width="49" height="49" viewBox="0 0 49 49" fill="none" xmlns="http://www.w3.org/2000/svg">
<path d="M37.9817 18.0566C38.5613 18.0566 39.1208 18.1449 39.6474 18.3084L44.4456 13.5102L42.2093 11.2739L35.4266 18.0566H37.9817ZM47.6763 16.7409L46.4343 15.4989L42.0889 19.8442C43.0293 20.85 43.6066 22.1993 43.6066 23.6816V24.788L47.6763 20.7183C48.7746 19.62 48.7746 17.8393 47.6763 16.7409ZM40.2206 9.28523L32.1752 1.2398C31.0768 0.141422 29.296 0.141422 28.1977 1.2398L11.3808 18.0567H31.4492L40.2206 9.28523ZM7.88135 29.7845H12.1659V32.9471H7.88135V29.7845Z" fill="#EBB88A"/>
<path d="M37.9816 20.8691H3.3125C1.75916 20.8691 0.5 22.1283 0.5 23.6816V45.6035C0.5 47.1568 1.75916 48.416 3.3125 48.416H37.9816C39.5349 48.416 40.7941 47.1568 40.7941 45.6035V23.6816C40.7941 22.1283 39.5349 20.8691 37.9816 20.8691ZM5.06881 26.972H14.9784V35.7595H5.06881V26.972ZM10.5402 42.313H4.98134V39.5005H10.5402V42.313ZM19.1309 42.313H13.5721V39.5005H19.1309V42.313ZM27.7219 42.313H22.1631V39.5005H27.7219V42.313ZM36.3128 42.313H30.754V39.5005H36.3128V42.313Z" fill="#EBB88A"/>
</svg>
