<svg width="49" height="42" viewBox="0 0 49 42" fill="none" xmlns="http://www.w3.org/2000/svg">
<path d="M46.2305 11.9918C44.1751 12.6601 41.9605 12.84 39.7555 12.4954C38.8586 12.3552 37.9299 12.2841 36.9954 12.2841C36.4622 12.2841 35.9136 12.3398 35.3648 12.4497C34.0268 12.7174 32.7174 13.3315 31.578 14.2254L24.6495 19.6611C24.4846 19.7906 24.281 19.8609 24.0714 19.8609C23.8618 19.8609 23.6582 19.7906 23.4933 19.6611L16.5648 14.2254C15.4254 13.3315 14.1159 12.7174 12.7779 12.4497C12.2292 12.3398 11.6807 12.2841 11.1473 12.2841C10.2128 12.2841 9.28416 12.3552 8.38725 12.4954C6.18254 12.84 3.96769 12.66 1.91232 11.9917C1.00379 11.6964 0.0714417 12.3709 0.0714417 13.3263V23.9762C0.0714417 26.7598 3.17766 29.3374 7.62507 30.2442C9.44232 30.6151 11.347 30.4504 13.1333 29.7683C13.5649 29.6036 14.0068 29.467 14.4561 29.3592C16.9562 28.7602 19.612 29.3066 21.7426 30.8588L21.7493 30.8638C23.1382 31.8768 25.0046 31.8768 26.3934 30.8638C28.5845 29.2658 31.3223 28.7375 33.9052 29.414C34.2794 29.5122 34.6481 29.6305 35.0096 29.7684C36.7958 30.4503 38.7007 30.615 40.5177 30.2442C44.9652 29.3373 48.0714 26.7598 48.0714 23.9762V13.3263C48.0714 12.3709 47.139 11.6964 46.2305 11.9918ZM17.602 23.0202C16.5923 23.6667 14.9069 24.5122 12.9983 24.5122C11.0897 24.5122 9.40435 23.6667 8.39447 23.0202C7.86516 22.6813 7.86516 21.9107 8.39447 21.5718C9.40425 20.9253 11.0896 20.0797 12.9983 20.0797C14.9068 20.0797 16.5923 20.9253 17.602 21.5718C18.1313 21.9107 18.1313 22.6813 17.602 23.0202ZM39.7483 23.0202C38.7385 23.6667 37.0532 24.5122 35.1446 24.5122C33.2361 24.5122 31.5506 23.6667 30.5408 23.0202C30.0115 22.6813 30.0115 21.9107 30.5408 21.5718C31.5506 20.9253 33.236 20.0797 35.1446 20.0797C37.0533 20.0797 38.7385 20.9253 39.7483 21.5718C40.2776 21.9107 40.2776 22.6813 39.7483 23.0202Z" fill="#EBB88A"/>
</svg>
