<svg width="47" height="42" viewBox="0 0 47 42" fill="none" xmlns="http://www.w3.org/2000/svg">
<path d="M23.5 22.916C27.64 22.916 31 19.556 31 15.416C31 11.276 27.64 7.91602 23.5 7.91602C19.36 7.91602 16 11.276 16 15.416C16 19.556 19.36 22.916 23.5 22.916ZM19.675 12.701C20.1161 12.2788 20.7031 12.0431 21.3137 12.0431C21.9243 12.0431 22.5114 12.2788 22.9525 12.701L23.5 13.226L24.0475 12.701C24.4902 12.282 25.0766 12.0486 25.6862 12.0486C26.2958 12.0486 26.8822 12.282 27.325 12.701C28.225 13.571 28.225 14.9885 27.325 15.8585L26.7775 16.3835L23.5 19.541L20.23 16.3835L19.6825 15.8585C19.4691 15.6546 19.2994 15.4096 19.1834 15.1382C19.0674 14.8669 19.0076 14.5749 19.0076 14.2798C19.0076 13.9847 19.0674 13.6926 19.1834 13.4213C19.2994 13.1499 19.4691 12.9049 19.6825 12.701H19.675ZM24.25 3.41602V1.16602C24.25 0.753516 23.9125 0.416016 23.5 0.416016C23.0875 0.416016 22.75 0.753516 22.75 1.16602V3.41602C22.75 3.82852 23.0875 4.16602 23.5 4.16602C23.9125 4.16602 24.25 3.82852 24.25 3.41602ZM18.25 6.04102C18.3777 6.03987 18.503 6.00644 18.6144 5.94385C18.7257 5.88126 18.8194 5.79154 18.8867 5.68302C18.9541 5.57451 18.9929 5.45073 18.9996 5.32318C19.0063 5.19564 18.9806 5.06848 18.925 4.95352L17.8 2.70352C17.7099 2.52697 17.5542 2.39275 17.3663 2.32965C17.1785 2.26656 16.9733 2.27961 16.795 2.36602C16.4275 2.55352 16.2775 3.00352 16.4575 3.37102L17.5825 5.62102C17.7175 5.88352 17.98 6.03352 18.2575 6.03352L18.25 6.04102ZM28.75 6.04102C29.0275 6.04102 29.29 5.89102 29.425 5.62852L30.55 3.37852C30.5945 3.29049 30.621 3.19451 30.6281 3.09614C30.6352 2.99776 30.6227 2.89896 30.5913 2.80546C30.5599 2.71197 30.5102 2.62564 30.4452 2.55149C30.3802 2.47734 30.3011 2.41684 30.2125 2.37352C30.1244 2.32902 30.0285 2.30246 29.9301 2.29536C29.8317 2.28827 29.7329 2.30078 29.6394 2.33218C29.5459 2.36358 29.4596 2.41324 29.3854 2.47827C29.3113 2.5433 29.2508 2.62241 29.2075 2.71102L28.0825 4.96102C28.038 5.04904 28.0114 5.14502 28.0043 5.24339C27.9972 5.34177 28.0097 5.44057 28.0411 5.53407C28.0725 5.62756 28.1222 5.71389 28.1872 5.78804C28.2522 5.86219 28.3314 5.92269 28.42 5.96602C28.525 6.01852 28.645 6.04852 28.7575 6.04852L28.75 6.04102ZM13.3 20.9585H13.33L14.0725 11.0285C14.0875 10.9535 14.095 10.8785 14.095 10.8035C14.0958 10.4873 13.9881 10.1804 13.7898 9.93407C13.5915 9.68775 13.3147 9.51695 13.0056 9.45021C12.6965 9.38348 12.3739 9.42485 12.0917 9.56743C11.8094 9.71 11.5847 9.94513 11.455 10.2335L7.64496 20.9585L7.62996 20.996C7.10179 22.1728 6.83076 23.4487 6.83496 24.7385V29.0885L5.28246 30.641L10.78 35.6285L13.345 32.7335C14.3294 31.6227 14.8736 30.1903 14.875 28.706V23.276C14.875 22.856 14.71 22.466 14.4175 22.166C14.1175 21.8735 13.7275 21.7085 13.3075 21.7085C12.5575 21.7085 11.935 22.211 11.77 22.9385L10.705 27.731L9.96996 27.566L11.0425 22.7735C11.1533 22.2579 11.4382 21.796 11.8492 21.4655C12.2603 21.1351 12.7725 20.956 13.3 20.9585ZM8.32746 41.711L11.2975 38.0585C11.4193 37.9104 11.4794 37.7211 11.4654 37.5298C11.4515 37.3385 11.3645 37.1599 11.2225 37.031L3.87996 30.386C3.80595 30.3183 3.71905 30.2662 3.62444 30.2328C3.52984 30.1995 3.42948 30.1855 3.32937 30.1918C3.22925 30.1981 3.13143 30.2246 3.04176 30.2695C2.95209 30.3145 2.8724 30.3771 2.80746 30.4535L0.669962 32.936C0.429962 33.2135 0.429962 33.626 0.662462 33.9035L7.17246 41.7185C7.47246 42.0785 8.03496 42.0785 8.32746 41.7185V41.711ZM35.23 22.9385C35.1541 22.588 34.9598 22.2743 34.6798 22.0503C34.3997 21.8263 34.0511 21.7056 33.6925 21.7085C33.2725 21.7085 32.8825 21.8735 32.5825 22.166C32.29 22.466 32.125 22.856 32.125 23.276V28.706C32.125 30.191 32.6725 31.6235 33.655 32.7335L36.22 35.6285L41.7175 30.641L40.165 29.0885V24.7385C40.165 23.4485 39.9025 22.1735 39.37 20.996L39.355 20.9585L35.545 10.2335C35.4153 9.94513 35.1905 9.71 34.9083 9.56743C34.626 9.42485 34.3034 9.38348 33.9943 9.45021C33.6852 9.51695 33.4084 9.68775 33.2101 9.93407C33.0118 10.1804 32.9041 10.4873 32.905 10.8035C32.905 10.8785 32.9125 10.9535 32.9275 11.0285L33.67 20.9585H33.7C34.795 20.9585 35.725 21.7085 35.9575 22.7735L37.03 27.566L36.295 27.731L35.23 22.9385ZM44.2 30.446C44.135 30.3696 44.0553 30.307 43.9657 30.262C43.876 30.2171 43.7782 30.1906 43.6781 30.1843C43.5779 30.178 43.4776 30.192 43.383 30.2253C43.2884 30.2587 43.2015 30.3108 43.1275 30.3785L35.785 37.0235C35.4925 37.2935 35.455 37.7435 35.71 38.051L38.68 41.7035C38.7496 41.7896 38.8375 41.8591 38.9375 41.9068C39.0374 41.9546 39.1467 41.9793 39.2575 41.9793C39.3682 41.9793 39.4775 41.9546 39.5775 41.9068C39.6774 41.8591 39.7654 41.7896 39.835 41.7035L46.345 33.8885C46.5775 33.6035 46.5775 33.1985 46.3375 32.921L44.2 30.4385V30.446Z" fill="#EBB88A"/>
</svg>
