<svg width="35" height="41" viewBox="0 0 35 41" fill="none" xmlns="http://www.w3.org/2000/svg">
<path d="M28 11.2285C28 17.018 23.2894 21.7285 17.5 21.7285C11.7106 21.7285 7.00001 17.018 7.00001 11.2285C7.00001 5.43908 11.7106 0.728516 17.5 0.728516C23.2894 0.728516 28 5.43908 28 11.2285ZM10.8154 23.0804C7.73461 24.3915 5.10777 26.5803 3.26233 29.374C1.41689 32.1677 0.434463 35.4428 0.437507 38.791C0.437507 39.1391 0.575788 39.473 0.821929 39.7191C1.06807 39.9652 1.40191 40.1035 1.75001 40.1035M33.25 40.1035C33.5981 40.1035 33.9319 39.9652 34.1781 39.7191C34.4242 39.473 34.5625 39.1391 34.5625 38.791C34.5625 31.9371 30.4885 25.771 24.1846 23.0804C24.0148 23.007 23.8312 22.9708 23.6463 22.9742C23.4613 22.9776 23.2792 23.0205 23.1123 23.1001C21.3554 23.9218 19.4395 24.3477 17.5 24.3477C15.5605 24.3477 13.6446 23.9218 11.8878 23.1001C11.7208 23.0205 11.5387 22.9776 11.3537 22.9742C11.1688 22.9708 10.9852 23.007 10.8154 23.0804C7.73461 24.3915 5.10777 26.5803 3.26233 29.374C1.41689 32.1677 0.434463 35.4428 0.437507 38.791C0.437507 39.1391 0.575788 39.473 0.821929 39.7191C1.06807 39.9652 1.40191 40.1035 1.75001 40.1035H33.25Z" fill="#EBB88A"/>
</svg>
