<svg width="16" height="16" viewBox="0 0 16 16" fill="none" xmlns="http://www.w3.org/2000/svg">
<path d="M12.1603 11.4568L11.9259 10.4336L12.726 9.7421C12.726 9.7421 12.7268 9.74113 12.7272 9.74092L14.8917 7.87022L15.7336 7.14273C16.1737 6.76195 16.0561 6.40688 15.4723 6.35352L13.4802 6.17181L10.4264 5.89303L9.21307 3.12148L8.42198 1.31411C8.19002 0.78397 7.81005 0.78397 7.57808 1.31411L6.78677 3.12148L5.57357 5.89303L2.51933 6.17181L0.527778 6.35352C-0.0564979 6.40699 -0.173789 6.76216 0.267059 7.14326L3.27251 9.74102C3.27251 9.74102 3.27295 9.74145 3.27328 9.74177L4.07395 10.4337L3.83991 11.4557C3.8398 11.4564 3.83969 11.4571 3.83958 11.4577L2.96017 15.2974C2.83101 15.8606 3.13823 16.0803 3.64279 15.7854L6.60523 14.0548L8.00009 13.2398L10.6373 14.7805L12.3576 15.7852C12.8617 16.0799 13.1688 15.8605 13.0404 15.2978L12.6002 13.3773L12.1607 11.4577C12.1607 11.4577 12.1603 11.4572 12.1603 11.4569V11.4568Z" fill="#FED1A7"/>
</svg>
